<svg xmlns="http://www.w3.org/2000/svg" viewBox="0 0 32 32" width="32" height="32">
  <defs>
    <linearGradient id="gold" x1="0%" y1="0%" x2="100%" y2="100%">
      <stop offset="0%" style="stop-color:#f5d560"/>
      <stop offset="100%" style="stop-color:#d4af37"/>
    </linearGradient>
  </defs>
  <path d="M22 4c-.8 0-1.6.3-2.1.9L7.3 17.5c-.3.3-.5.7-.6 1.1l-1.5 6c-.2.6 0 1.3.5 1.7.3.3.7.5 1.1.5.2 0 .4 0 .6-.1l6-1.5c.4-.1.8-.3 1.1-.6L27.1 12c1.2-1.2 1.2-3.1 0-4.2l-2.9-2.9c-.6-.6-1.4-.9-2.2-.9zM9.1 19.2L20.3 8l3.7 3.7L12.8 22.9l-5 1.3 1.3-5z" fill="url(#gold)"/>
</svg>
